<svg xmlns="http://www.w3.org/2000/svg" viewBox="0 0 1745.55 238.03"><defs><style>.cls-1{fill:#040506;}.cls-2{fill:#53b88c;}.cls-3{fill:#fefefe;}</style></defs><g id="Capa_2" data-name="Capa 2"><g id="Logo"><path class="cls-1" d="M1088.44,158.89c0-23.91,0-47.83-.08-71.74,0-2.65.75-3.12,3.19-3.08,9.31.15,18.62.13,27.93,0a4.14,4.14,0,0,1,4.15,2.33c2,3.5,4.46,6.79,6.43,10.34,1.23,2.21,2.12,2.61,4.47,1.18,12.11-7.37,24.82-13.44,38.71-16.68,14.45-3.37,28.79-3.44,42.84,2a37.89,37.89,0,0,1,16.86,12.4c1.27,1.65,2.08,1.47,3.68.54,12-7,24.54-12.69,38.24-15.5a74,74,0,0,1,33.4.43c18.67,4.74,29.13,17.27,33.3,35.59a86.77,86.77,0,0,1,2.06,19.28c0,31.85,0,63.71.07,95.56,0,2.48-.68,3-3,3q-25.32-.17-50.63,0c-2.15,0-2.71-.47-2.71-2.67.09-29.72,0-59.45.06-89.17a36.5,36.5,0,0,0-1.07-8.9c-1.5-6.07-4.28-8.25-10.63-8.7-5.55-.39-10.75,1.17-16,2.66-4.35,1.26-8.55,3-12.88,4.38-2,.62-2.59,1.63-2.58,3.71q.1,47.2,0,94.4a12.62,12.62,0,0,0,0,1.74c.21,1.56-.48,1.95-2,1.95q-26.32-.07-52.66,0c-2.16,0-1.73-1.22-1.73-2.4q0-20.62,0-41.25,0-23.37,0-46.76a39.13,39.13,0,0,0-1.13-9.77c-1.57-6.12-4.26-8.24-10.63-8.68-5.34-.38-10.38,1.06-15.39,2.5-4.45,1.27-8.75,3.08-13.18,4.42-2.22.67-2.91,1.72-2.9,4.09.09,31.56,0,63.12.12,94.68,0,2.52-.52,3.21-3.14,3.19-16.87-.14-33.75-.11-50.63,0-2.13,0-2.71-.44-2.7-2.65C1088.47,207.11,1088.44,183,1088.44,158.89Z"/><path class="cls-1" d="M329.47,237.52c-17.8-.05-34.82-3.17-50.34-12.47-18.27-11-28.72-27.16-32.15-48-2.41-14.66-2.48-29.35,2-43.65,7.09-22.6,21.8-38.65,43.9-47.09,26.22-10,52.8-9.71,78.75,1,23.64,9.77,37.36,28.15,42.2,53,3.25,16.67,3.21,33.45-3.14,49.45-9.23,23.26-26.51,37.71-50.76,43.93A120.9,120.9,0,0,1,329.47,237.52Zm28.34-75.94c-.06-9.33-1.2-16.69-4.9-23.51-4.64-8.55-11.85-12.77-21.51-12.66-10.06.11-18.08,4-22.65,13.35-5.52,11.33-5.62,23.19-2.32,35,3.08,11,10.6,16.77,22.06,17.73,13.85,1.17,24.15-5.66,27.74-18.47A43.2,43.2,0,0,0,357.81,161.58Z"/><path class="cls-1" d="M1447.49,237.51c-18.41-.06-36-3.4-51.8-13.42-17.84-11.28-27.67-27.68-30.79-48.26-2.14-14.09-2.12-28.19,2.08-42,6.47-21.22,19.64-37,40.12-45.85,27.86-12,56.25-12,84.05,0,23.84,10.25,37,29.44,41.24,54.72,2.59,15.54,2.5,31.16-3.18,46.08-9,23.74-26.41,38.48-51,44.9a117.38,117.38,0,0,1-30.77,3.8ZM1422.43,160c.16,1.83.32,4.73.68,7.61,1.77,14.11,10.39,22.78,23.67,23.9,13.45,1.13,24-5.5,27.35-17.83a48.72,48.72,0,0,0-3.22-35.53c-4.18-8.48-11.22-12.58-20.51-12.76s-17,2.75-22.11,10.83C1423.88,143.18,1422.6,150.93,1422.43,160Z"/><path class="cls-1" d="M975.93,173.31a25.42,25.42,0,0,0,9.57,13.31c7.6,5.51,16.33,6.63,25.38,6.52a87.82,87.82,0,0,0,37.71-9.25c2-1,2.67-.58,3.47,1.37q6.92,16.86,14.12,33.61c.79,1.84.41,2.64-1.18,3.63-9,5.65-19,8.63-29.17,10.92-23.8,5.33-47.44,5.16-70.78-2.55-30.87-10.21-49.7-36.11-50.17-68.6-.19-13.2,1.29-26.05,6.48-38.29,7.72-18.21,20.42-31.42,39.13-38.54,17.83-6.79,36.13-8.62,54.73-4.16,24.18,5.81,38.79,22,47,44.72,3.74,10.4,4.86,21.24,4.81,32.24,0,4.16-.15,8.33.06,12.48.12,2.27-.64,2.64-2.73,2.63-24.44-.07-48.87,0-73.31,0ZM993.8,145.9h17.43c1.08,0,2.25.16,2-1.55-1-7.53-4-14.17-10.73-18-11.74-6.59-28.54,4-28.33,17.46,0,1.67.58,2.1,2.19,2.08C982.18,145.85,988,145.9,993.8,145.9Z"/><path class="cls-1" d="M582.66,173.31c4.39,11.73,13,17.48,24.54,19.12,16.92,2.41,32.91-1.22,48.14-8.5,2.23-1.06,2.82-.51,3.65,1.5q6.81,16.6,13.9,33.08c.86,2,.58,3-1.27,4.15-8.86,5.46-18.64,8.41-28.65,10.68-23.29,5.3-46.43,5.15-69.4-1.9-29.18-8.95-48.25-32.47-50.91-62.82-1.29-14.65,0-29,5.33-42.75,7.5-19.27,20.57-33.11,40.11-40.54,17.45-6.65,35.41-8.53,53.6-4.14,23.4,5.64,38.61,20.58,46.56,43.1A95.35,95.35,0,0,1,673.8,157c0,4.45-.15,8.91.05,13.35.11,2.39-.5,3-3,3-23.36-.11-46.73-.06-70.1-.06Zm17.89-27.41H618c1,0,2.07.26,2.07-1.5,0-6.26-6.49-17-12.39-19-11.95-4.09-26.25,5.5-26.74,18.16-.08,2,.63,2.43,2.47,2.4C589.12,145.84,594.84,145.9,600.55,145.9Z"/><path class="cls-2" d="M154.09,25.13c13.34,1.53,26.36,4.27,38.57,10.09,13.41,6.38,24.24,15.44,29.18,29.91,6.72,19.66,3.29,37.3-11.36,52.47-1.57,1.63-4.47,3.12-4.12,5.17.29,1.66,3.15,2.84,4.81,4.31,10.88,9.68,19.76,20.7,21.43,35.73,2,18.36-.48,35.64-14.58,49.27-8.26,8-18.62,12.39-29.4,15.81A131,131,0,0,1,150,233.76c-9.88.1-19.76.34-29.64-.18,0-1.36.06-2.71.06-4.07q0-100.59,0-201.19c0-1.25.1-2.5.16-3.76h26.21ZM121.59,169c0,6.19.06,12.38,0,18.57,0,1.86.5,2.52,2.45,2.5,8.13-.1,16.28.06,24.41-.09a44.59,44.59,0,0,0,11.46-1.67c11.58-3.31,17.46-12.52,15-23.45-1.85-8.09-9.36-14.49-19.06-16-10.79-1.63-21.67-.5-32.5-.81-1.8-.05-1.68,1.16-1.68,2.34Zm0-83.17c0,5,.08,10.06,0,15.08,0,1.92.37,2.77,2.52,2.69,4.55-.16,9.11.11,13.66-.08,7.09-.31,14.05-1.43,20.56-4.48,8.84-4.16,11.11-13.06,5.31-20.94-3.46-4.7-8.55-6.79-14-8.22-8.65-2.28-17.5-1.57-26.29-1.7-1.76,0-1.77,1-1.76,2.27C121.6,75.62,121.59,80.74,121.59,85.87Z"/><path class="cls-1" d="M706.09,160.36c0-7.45-.07-14.91,0-22.36,0-1.91-.49-2.44-2.4-2.4-6.21.12-12.42,0-18.62.08-1.82,0-2.26-.51-2.25-2.28q.12-19.91,0-39.79c0-2,.67-2.38,2.48-2.35,5.82.1,11.65-.09,17.46.09,2.52.08,3.42-.43,3.37-3.22-.18-11.61,0-23.23-.14-34.85,0-2.14.65-2.77,2.62-3q25.64-3.42,51.23-7c2-.28,2.63.15,2.62,2.28-.09,14.23,0,28.46-.11,42.69,0,2.21.57,2.69,2.71,2.67,11.54-.12,23.08-.05,34.62-.07,1.41,0,2.45-.11,2.67,1.9,1.51,13.65,3.15,27.28,4.79,40.91.27,2.25-1.4,1.41-2.29,1.42-11.15.05-22.31,0-33.46.05-2.69,0-6.19-1.13-7.86.45s-.49,5.12-.51,7.79c-.06,9.78,0,19.56,0,29.34,0,5.25,1.12,10.19,4.6,14.32s8.36,5.19,13.61,5.08a45.74,45.74,0,0,0,19-4.8c1.48-.71,2.06-.58,2.72,1,4.73,11.5,9.52,23,14.46,34.41.82,1.91,0,2.57-1.29,3.41A73.06,73.06,0,0,1,787.26,237c-20.78,3.09-40.4-.49-57.87-12.5-15.95-11-23.44-26.54-23.31-45.82C706.12,172.56,706.09,166.46,706.09,160.36Z"/><path class="cls-1" d="M1609,237.53c-14.23-.83-31.21-2.72-47.37-9.05a58.16,58.16,0,0,1-13.13-7.33c-1.13-.82-1.41-1.45-.8-2.77,4.88-10.71,9.74-21.42,14.49-32.18.81-1.84,1.62-1.43,3-.87,13.1,5.23,26.6,8.81,40.78,9.35a16.85,16.85,0,0,0,9.18-2.31c3.52-2,3.81-4.93.89-7.67a24.36,24.36,0,0,0-9.74-5.54,142.73,142.73,0,0,1-41-19.94c-11.29-8-16.26-19.22-15.62-33.06,1-23.16,15.71-37.14,37.45-43.44,18.15-5.26,36.54-4.7,54.91-1a78.76,78.76,0,0,1,29.08,11.81c1.49,1,1.76,1.82,1,3.5-4.72,10.25-9.38,20.53-13.9,30.87-.92,2.09-1.71,2.56-4,1.66-10.16-4.09-20.51-7.55-31.58-8.19-5.06-.29-10.06-.09-14.76,2.16-1.74.83-3.08,1.94-3.38,4s1.28,3.13,2.73,4a85.46,85.46,0,0,0,15.28,6.93c13.09,4.71,25.47,10.76,36.21,19.73,10,8.34,14.23,19.16,13.6,32.08-.42,8.74-2.18,17.06-7,24.47-7.61,11.6-18.86,17.68-32.06,20.65C1626.23,237,1619.08,237.47,1609,237.53Z"/><path class="cls-1" d="M497.16,125.67q0,52.85.07,105.7c0,2.6-.66,3.11-3.16,3.09q-25.31-.18-50.61,0c-2.33,0-2.8-.64-2.8-2.85q.09-104.54,0-209.07c0-2.31.71-2.82,2.86-2.94q25.65-1.52,51.3-3.29c2.2-.15,2.4.64,2.39,2.51Q497.13,72.25,497.16,125.67Z"/><path class="cls-1" d="M892.8,159.34c0,24.1,0,48.2.06,72.29,0,2.36-.69,2.83-2.9,2.82q-25.46-.13-50.9,0c-2.21,0-2.67-.56-2.67-2.7q.11-72.28,0-144.59c0-2.15.49-2.72,2.69-2.71q25.45.15,50.9,0c2.3,0,2.88.59,2.87,2.87C892.77,111.34,892.8,135.34,892.8,159.34Z"/><path class="cls-2" d="M1717.64,13.63c8.34,0,16.67.07,25-.05,2.25,0,3,.5,2.87,2.87-.81,17.76-1.51,35.52-2.2,53.29-.5,12.74-.94,25.49-1.42,38.24q-1.15,30-2.3,60c-.07,1.81-.72,2.13-2.34,1.67-13.3-3.79-26.59-7.6-39.93-11.24-2-.56-1.9-1.79-2-3.23q-.94-22.44-1.9-44.89-1.15-27.08-2.33-54.16c-.56-13.22-1.08-26.45-1.73-39.67-.11-2.14.39-2.88,2.64-2.85C1700.58,13.7,1709.11,13.63,1717.64,13.63Z"/><path class="cls-1" d="M120.6,24.56c-.06,1.26-.16,2.51-.16,3.76q0,100.6,0,201.19c0,1.36,0,2.71-.06,4.07q-58.45-.08-116.9-.07c-2.8,0-3.47-.65-3.47-3.46q.14-103.8.06-207.6c0-5.62.94-11,4.23-15.68A15,15,0,0,1,16,.18c.78-.06,1.55-.09,2.33-.09Q74.18,0,130,0c14.62,0,23.39,9.29,24.08,25.12l-7.28-.55c-.63-11.1-6.68-17.3-16.57-17.1A8.06,8.06,0,0,0,122.75,12,20.56,20.56,0,0,0,120.6,24.56Zm-3.68-17.3H21.72c-10.16,0-13.46,3-14.42,13.13-.08.87,0,1.74,0,2.61q0,100.07-.07,200.11c0,2.6.66,3.13,3.17,3.12q49.76-.14,99.5,0c2.62,0,3.28-.61,3.28-3.25q-.12-96.72-.07-193.43C113.05,22,112.67,14.47,116.92,7.26Z"/><path class="cls-1" d="M864.53,63.61a29.74,29.74,0,0,1-30.12-29.86c-.07-16.68,13.89-31,30.06-30.95A31.39,31.39,0,0,1,895.32,34C895.29,50.49,881.65,63.6,864.53,63.61Z"/><path class="cls-2" d="M1688.81,205.77c-.56-18.58,16.6-28.33,28.6-28.06,16.14.38,28.22,12.48,28.14,28.53s-12.44,28.22-28.79,28.15C1700.78,234.31,1688.72,222,1688.81,205.77Z"/><path class="cls-3" d="M120.6,24.56A20.56,20.56,0,0,1,122.75,12a8.06,8.06,0,0,1,7.49-4.52c9.89-.2,15.94,6,16.57,17.1Z"/><path class="cls-3" d="M116.92,7.26c-4.25,7.21-3.87,14.77-3.86,22.29q0,96.72.07,193.43c0,2.64-.66,3.26-3.28,3.25q-49.74-.14-99.5,0c-2.51,0-3.17-.52-3.17-3.12Q7.32,123.06,7.25,23c0-.87,0-1.74,0-2.61,1-10.14,4.26-13.13,14.42-13.13h95.2ZM59.25,60.7c-11.14,0-22.27,0-33.4-.05-2,0-2.62.49-2.58,2.53,0,1.84.45,2.42,2.4,2.41q33.27-.11,66.52,0c1.9,0,2.41-.49,2.43-2.39s-.48-2.58-2.55-2.55C81.13,60.76,70.19,60.7,59.25,60.7ZM59,104.85c11,0,22.1-.06,33.15.06,2.11,0,2.47-.64,2.53-2.59.06-2.13-.86-2.24-2.54-2.24q-33.15.06-66.3,0c-1.71,0-2.57.16-2.53,2.26s.45,2.59,2.54,2.57C36.85,104.79,47.9,104.85,59,104.85Zm0,34.66c-11,0-22.1.06-33.15,0-2.12,0-2.47.64-2.53,2.59-.06,2.13.87,2.24,2.54,2.24q33.15-.07,66.3,0c1.71,0,2.57-.16,2.53-2.26s-.46-2.59-2.54-2.57C81,139.57,70,139.51,58.94,139.51Zm0,48.42c11,0,22.1-.06,33.15,0,2.1,0,2.48-.63,2.53-2.58.05-2.12-.85-2.25-2.54-2.25q-33.15.07-66.3,0c-1.69,0-2.58.14-2.53,2.25S23.7,188,25.8,188C36.85,187.87,47.9,187.93,59,187.93Z"/><path class="cls-1" d="M59.25,60.7c10.94,0,21.88.06,32.82-.05,2.07,0,2.57.56,2.55,2.55s-.53,2.39-2.43,2.39q-33.26-.11-66.52,0c-2,0-2.36-.57-2.4-2.41,0-2,.55-2.55,2.58-2.53C37,60.75,48.11,60.7,59.25,60.7Z"/><path class="cls-1" d="M59,104.85c-11.05,0-22.1-.06-33.15.06-2.09,0-2.5-.6-2.54-2.57s.82-2.27,2.53-2.26q33.15.06,66.3,0c1.68,0,2.6.11,2.54,2.24-.06,2-.42,2.61-2.53,2.59C81.05,104.79,70,104.85,59,104.85Z"/><path class="cls-1" d="M58.94,139.51c11,0,22.1.06,33.15,0,2.08,0,2.5.59,2.54,2.57s-.82,2.26-2.53,2.26q-33.15-.07-66.3,0c-1.67,0-2.6-.11-2.54-2.24.06-2,.41-2.61,2.53-2.59C36.84,139.57,47.89,139.51,58.94,139.51Z"/><path class="cls-1" d="M59,187.93c-11.05,0-22.1-.06-33.15,0-2.1,0-2.49-.61-2.54-2.58s.84-2.25,2.53-2.25q33.15.07,66.3,0c1.69,0,2.59.13,2.54,2.25,0,1.95-.43,2.6-2.53,2.58C81.05,187.87,70,187.93,59,187.93Z"/></g></g></svg>