<svg xmlns="http://www.w3.org/2000/svg" viewBox="0 0 1920 1080"><defs><style>.cls-1{fill:#fff;}</style></defs><g id="Logo-Negativo"><path class="cls-1" d="M1181.72,552.67c0-23.91,0-47.82-.08-71.74,0-2.65.75-3.11,3.19-3.08,9.31.15,18.62.13,27.93,0a4.15,4.15,0,0,1,4.15,2.33c2,3.51,4.46,6.8,6.43,10.34,1.23,2.21,2.12,2.61,4.47,1.18,12.11-7.37,24.82-13.44,38.72-16.68,14.44-3.37,28.78-3.44,42.83,2a37.89,37.89,0,0,1,16.86,12.4c1.27,1.65,2.08,1.48,3.68.54,12-7,24.54-12.69,38.24-15.5a73.87,73.87,0,0,1,33.4.44c18.67,4.73,29.13,17.26,33.3,35.58a86.77,86.77,0,0,1,2.06,19.28c0,31.85,0,63.71.07,95.56,0,2.48-.68,3-3,3q-25.32-.16-50.63,0c-2.15,0-2.71-.48-2.71-2.68.09-29.72.05-59.44.06-89.17a36.55,36.55,0,0,0-1.07-8.9c-1.5-6.07-4.28-8.25-10.63-8.7-5.54-.39-10.75,1.17-16,2.66-4.35,1.26-8.55,3-12.88,4.38-2,.62-2.59,1.64-2.58,3.71q.11,47.21,0,94.4a12.62,12.62,0,0,0,0,1.74c.21,1.56-.48,2-2,2-17.55,0-35.11-.07-52.66,0-2.16,0-1.73-1.22-1.73-2.4q0-20.62,0-41.25,0-23.37,0-46.76a39.19,39.19,0,0,0-1.13-9.77c-1.57-6.12-4.26-8.24-10.63-8.68-5.34-.38-10.38,1.06-15.39,2.5-4.45,1.28-8.75,3.08-13.18,4.42-2.22.67-2.91,1.72-2.9,4.09.09,31.56,0,63.12.12,94.69,0,2.51-.52,3.2-3.14,3.18q-25.31-.2-50.62,0c-2.14,0-2.72-.44-2.71-2.65C1181.75,600.89,1181.72,576.78,1181.72,552.67Z"/><path class="cls-1" d="M422.75,631.3c-17.8,0-34.82-3.17-50.34-12.46-18.27-11-28.72-27.17-32.15-48-2.41-14.66-2.48-29.35,2-43.65,7.09-22.6,21.8-38.64,43.9-47.08,26.22-10,52.8-9.72,78.75,1,23.64,9.77,37.36,28.16,42.2,53,3.25,16.66,3.21,33.44-3.14,49.44-9.23,23.26-26.51,37.71-50.76,43.93A120.9,120.9,0,0,1,422.75,631.3Zm28.34-75.94c-.06-9.33-1.2-16.69-4.9-23.51-4.63-8.55-11.85-12.77-21.51-12.66-10.06.11-18.08,4-22.65,13.36-5.52,11.32-5.62,23.18-2.32,35,3.08,11,10.6,16.77,22.06,17.73,13.85,1.18,24.15-5.66,27.74-18.47A43.2,43.2,0,0,0,451.09,555.36Z"/><path class="cls-1" d="M1540.77,631.3c-18.41-.07-36-3.41-51.8-13.43-17.84-11.28-27.67-27.68-30.79-48.25-2.14-14.1-2.12-28.2,2.08-42,6.47-21.22,19.65-37,40.12-45.84,27.86-12,56.25-12,84,0,23.84,10.26,37,29.44,41.24,54.72,2.59,15.54,2.5,31.16-3.18,46.08-9,23.74-26.41,38.48-51,44.9a117.1,117.1,0,0,1-14.24,2.8A120,120,0,0,1,1540.77,631.3Zm-25.06-77.48c.16,1.83.32,4.72.68,7.6,1.77,14.11,10.39,22.78,23.67,23.9,13.45,1.14,24-5.5,27.35-17.83a48.73,48.73,0,0,0-3.22-35.53c-4.18-8.48-11.22-12.58-20.51-12.76s-17,2.75-22.11,10.83C1517.16,537,1515.88,544.71,1515.71,553.82Z"/><path class="cls-1" d="M1069.21,567.09a25.42,25.42,0,0,0,9.57,13.31c7.6,5.51,16.33,6.63,25.38,6.52a87.82,87.82,0,0,0,37.71-9.25c2-1,2.67-.58,3.47,1.37q6.92,16.86,14.12,33.61c.79,1.84.41,2.64-1.18,3.64-9,5.64-19,8.62-29.17,10.91-23.8,5.33-47.44,5.17-70.78-2.55-30.87-10.21-49.7-36.11-50.17-68.6-.19-13.19,1.29-26,6.48-38.29,7.72-18.21,20.42-31.42,39.13-38.54,17.83-6.79,36.13-8.62,54.73-4.16,24.18,5.81,38.79,22,47,44.72,3.74,10.4,4.86,21.24,4.81,32.24,0,4.16-.15,8.33.06,12.48.12,2.27-.64,2.64-2.73,2.64-24.43-.08-48.87,0-73.31,0Zm17.87-27.41h17.43c1.08,0,2.25.17,2-1.55-1-7.53-4-14.17-10.73-17.95-11.74-6.6-28.54,4-28.33,17.45,0,1.67.58,2.1,2.19,2.08C1075.46,539.63,1081.27,539.68,1087.08,539.68Z"/><path class="cls-1" d="M675.94,567.09c4.39,11.73,13,17.48,24.54,19.12,16.92,2.41,32.91-1.22,48.14-8.5,2.23-1.06,2.82-.51,3.65,1.5q6.81,16.6,13.9,33.08c.86,2,.58,3-1.27,4.15-8.86,5.46-18.64,8.41-28.65,10.69-23.29,5.29-46.43,5.14-69.4-1.91-29.18-9-48.25-32.47-50.91-62.82-1.29-14.65,0-29,5.33-42.75,7.5-19.26,20.57-33.11,40.11-40.54,17.45-6.64,35.41-8.53,53.6-4.14,23.41,5.65,38.61,20.58,46.56,43.1a95.35,95.35,0,0,1,5.54,32.7c0,4.45-.15,8.91,0,13.35.11,2.39-.5,3-3,3-23.36-.11-46.73-.06-70.1-.06Zm17.89-27.41h17.44c1.05,0,2.07.25,2.08-1.51,0-6.26-6.5-17-12.4-19-12-4.09-26.25,5.5-26.74,18.16-.08,2,.63,2.43,2.47,2.4C682.4,539.62,688.12,539.68,693.83,539.68Z"/><path class="cls-1" d="M247.38,418.91c13.33,1.53,26.35,4.27,38.56,10.09,13.41,6.38,24.24,15.44,29.18,29.91,6.72,19.66,3.29,37.3-11.36,52.47-1.57,1.63-4.47,3.12-4.12,5.17.29,1.66,3.16,2.85,4.81,4.31,10.88,9.68,19.76,20.7,21.43,35.73,2,18.36-.48,35.64-14.58,49.28-8.26,8-18.62,12.38-29.4,15.81a131.35,131.35,0,0,1-38.61,5.86c-9.88.1-19.76.34-29.64-.18,0-1.36.06-2.71.06-4.06q0-100.6,0-201.2c0-1.25.11-2.5.16-3.76l26.21,0ZM214.87,562.82c0,6.19.06,12.38,0,18.57,0,1.86.5,2.52,2.45,2.5,8.13-.1,16.28.06,24.41-.09a44.59,44.59,0,0,0,11.46-1.67c11.58-3.31,17.46-12.52,15-23.45-1.85-8.08-9.36-14.49-19.06-16-10.79-1.64-21.67-.51-32.5-.82-1.8,0-1.68,1.16-1.68,2.35Zm0-83.17c0,5,.08,10.06,0,15.09,0,1.91.37,2.76,2.52,2.68,4.55-.16,9.11.11,13.66-.08,7.09-.3,14.05-1.42,20.56-4.48,8.84-4.15,11.11-13.06,5.31-20.93-3.46-4.71-8.55-6.8-14-8.23-8.65-2.28-17.5-1.57-26.29-1.7-1.76,0-1.77,1-1.76,2.27C214.88,469.4,214.87,474.52,214.87,479.65Z"/><path class="cls-1" d="M799.37,554.14c0-7.45-.07-14.91,0-22.36,0-1.91-.49-2.44-2.4-2.4-6.21.12-12.42,0-18.62.09-1.82,0-2.26-.52-2.25-2.29q.12-19.9,0-39.79c0-2,.67-2.38,2.48-2.35,5.82.1,11.65-.08,17.46.09,2.52.08,3.42-.43,3.37-3.22-.18-11.61,0-23.23-.14-34.85,0-2.14.65-2.77,2.62-3q25.64-3.42,51.23-7c2-.28,2.63.15,2.62,2.28-.09,14.23,0,28.46-.11,42.7,0,2.2.57,2.68,2.71,2.66,11.54-.12,23.08,0,34.62-.07,1.41,0,2.45-.11,2.67,1.9,1.51,13.65,3.15,27.28,4.79,40.91.27,2.25-1.4,1.41-2.29,1.42-11.15.05-22.31,0-33.46.05-2.69,0-6.19-1.13-7.86.45s-.49,5.12-.51,7.79c-.06,9.78,0,19.56,0,29.34,0,5.26,1.12,10.19,4.6,14.32s8.36,5.19,13.61,5.08a45.74,45.74,0,0,0,19-4.8c1.48-.71,2.06-.58,2.72,1,4.73,11.5,9.52,23,14.46,34.41.83,1.91,0,2.58-1.29,3.41a73.06,73.06,0,0,1-28.84,10.87c-20.78,3.09-40.4-.49-57.87-12.5-15.95-11-23.44-26.54-23.31-45.82C799.4,566.34,799.37,560.24,799.37,554.14Z"/><path class="cls-1" d="M1702.25,631.31c-14.23-.82-31.21-2.72-47.37-9a58.16,58.16,0,0,1-13.13-7.33c-1.13-.82-1.41-1.45-.8-2.77,4.88-10.7,9.74-21.42,14.49-32.18.81-1.84,1.62-1.43,3-.86,13.1,5.22,26.6,8.8,40.78,9.34a16.85,16.85,0,0,0,9.18-2.31c3.52-2,3.81-4.93.9-7.67a24.58,24.58,0,0,0-9.75-5.54,142.73,142.73,0,0,1-41-19.94c-11.29-8-16.26-19.22-15.62-33.06,1-23.16,15.71-37.14,37.45-43.44,18.15-5.26,36.54-4.7,54.91-1a78.76,78.76,0,0,1,29.08,11.81c1.49,1,1.76,1.82,1,3.5-4.72,10.25-9.38,20.53-13.9,30.87-.92,2.1-1.7,2.56-4,1.66-10.16-4.09-20.51-7.55-31.58-8.19-5.06-.29-10.06-.09-14.76,2.16-1.74.83-3.08,1.94-3.37,4s1.27,3.13,2.72,4a86.12,86.12,0,0,0,15.28,6.92C1728.92,537,1741.29,543,1752,552c10,8.34,14.23,19.16,13.6,32.08-.42,8.74-2.18,17.06-7,24.47-7.61,11.6-18.86,17.68-32.06,20.65C1719.51,630.79,1712.36,631.26,1702.25,631.31Z"/><path class="cls-1" d="M590.44,519.45q0,52.86.07,105.7c0,2.6-.66,3.11-3.16,3.1q-25.3-.18-50.61,0c-2.32,0-2.8-.64-2.8-2.85q.09-104.53,0-209.07c0-2.31.71-2.82,2.86-2.94q25.65-1.51,51.3-3.29c2.2-.15,2.4.64,2.39,2.51Q590.41,466,590.44,519.45Z"/><path class="cls-1" d="M986.08,553.12c0,24.1,0,48.2.06,72.3,0,2.35-.69,2.82-2.9,2.81q-25.46-.13-50.9,0c-2.21,0-2.67-.56-2.67-2.7q.11-72.28,0-144.59c0-2.15.48-2.72,2.68-2.71q25.46.15,50.9,0c2.3,0,2.88.59,2.88,2.88C986.05,505.12,986.08,529.12,986.08,553.12Z"/><path class="cls-1" d="M1810.92,407.41c8.34,0,16.67.08,25-.05,2.25,0,3,.5,2.87,2.87-.81,17.76-1.51,35.52-2.2,53.29-.5,12.74-.94,25.49-1.42,38.24q-1.15,30-2.3,60c-.07,1.81-.72,2.13-2.34,1.67-13.3-3.79-26.59-7.6-39.93-11.24-2-.56-1.9-1.79-2-3.23q-.95-22.44-1.9-44.89-1.15-27.07-2.33-54.16c-.56-13.22-1.08-26.45-1.73-39.67-.11-2.14.39-2.88,2.64-2.85C1793.86,407.48,1802.39,407.41,1810.92,407.41Z"/><path class="cls-1" d="M213.88,418.34c0,1.26-.16,2.51-.16,3.76q0,100.61,0,201.2c0,1.35,0,2.7-.06,4.06q-58.46-.08-116.9-.07c-2.8,0-3.47-.65-3.47-3.46q.14-103.8.06-207.6c0-5.61.94-11,4.23-15.68A15,15,0,0,1,109.28,394c.78,0,1.55-.09,2.33-.09q55.85-.06,111.68-.08c14.62,0,23.39,9.29,24.09,25.12l-7.29-.55c-.63-11.1-6.68-17.3-16.57-17.1a8.06,8.06,0,0,0-7.49,4.52A20.56,20.56,0,0,0,213.88,418.34ZM210.2,401H115c-10.16,0-13.46,3-14.42,13.13-.08.87,0,1.74,0,2.62q0,100.05-.07,200.1c0,2.6.66,3.13,3.17,3.12q49.76-.13,99.5,0c2.62,0,3.29-.6,3.28-3.25q-.12-96.71-.07-193.42C206.33,415.81,206,408.25,210.2,401Z"/><path class="cls-1" d="M957.81,457.39a29.74,29.74,0,0,1-30.12-29.86c-.07-16.68,13.89-31,30.06-30.95a31.39,31.39,0,0,1,30.85,31.21C988.58,444.27,974.93,457.38,957.81,457.39Z"/><path class="cls-1" d="M1782.09,599.56c-.56-18.59,16.6-28.34,28.6-28.06,16.14.37,28.22,12.47,28.14,28.52s-12.44,28.22-28.79,28.15C1794.06,628.09,1782,615.74,1782.09,599.56Z"/><path class="cls-1" d="M152.53,454.48c10.94,0,21.88.06,32.82-.05,2.07,0,2.57.56,2.55,2.56s-.53,2.39-2.43,2.38q-33.25-.11-66.51,0c-2,0-2.37-.57-2.41-2.41,0-2,.55-2.55,2.58-2.53C130.26,454.53,141.39,454.48,152.53,454.48Z"/><path class="cls-1" d="M152.23,498.63c-11,0-22.1-.06-33.15.06-2.09,0-2.5-.6-2.54-2.57s.82-2.26,2.53-2.26q33.15.06,66.3,0c1.68,0,2.6.11,2.54,2.24-.06,1.95-.42,2.61-2.53,2.59C174.33,498.57,163.28,498.63,152.23,498.63Z"/><path class="cls-1" d="M152.22,533.29c11.05,0,22.1.06,33.15,0,2.08,0,2.5.6,2.54,2.57s-.82,2.26-2.53,2.26q-33.15-.08-66.3,0c-1.67,0-2.6-.11-2.54-2.24.06-2,.41-2.61,2.53-2.59C130.12,533.36,141.17,533.29,152.22,533.29Z"/><path class="cls-1" d="M152.23,581.71c-11,0-22.1-.06-33.15,0-2.1,0-2.49-.61-2.54-2.57-.05-2.11.84-2.26,2.53-2.26q33.15.08,66.3,0c1.69,0,2.59.13,2.54,2.25,0,2-.43,2.6-2.53,2.58C174.33,581.65,163.28,581.71,152.23,581.71Z"/></g></svg>