<svg xmlns="http://www.w3.org/2000/svg" viewBox="0 0 991.4 994.3"><defs><style>.cls-1{fill:#53b88c;}.cls-2{fill:#040506;}</style></defs><g id="Capa_2" data-name="Capa 2"><g id="Reduccion_1" data-name="Reduccion 1"><path class="cls-1" d="M655.05,106.81c56.7,6.53,112.06,18.18,164,42.89,57,27.15,103,65.64,124,127.15,28.56,83.58,14,158.59-48.3,223.08-6.68,6.91-19,13.25-17.5,22,1.21,7.05,13.39,12.07,20.42,18.32,46.26,41.12,84,88,91.09,151.88,8.67,78-2,151.51-62,209.46-35.13,34-79.15,52.64-125,67.2-53.35,17-108.35,24.37-164.15,24.93-42,.41-84,1.44-126-.77.1-5.76.26-11.51.26-17.27q0-427.63,0-855.27c0-5.32.43-10.65.66-16l111.43,0ZM516.89,718.56c0,26.32.25,52.64-.16,79-.12,7.92,2.12,10.74,10.42,10.64,34.59-.41,69.2.27,103.79-.37a190.14,190.14,0,0,0,48.71-7.12c49.21-14,74.2-53.22,63.54-99.68-7.88-34.37-39.79-61.6-81-67.86-45.85-7-92.1-2.14-138.14-3.47-7.68-.22-7.15,4.93-7.15,10Q516.9,679.08,516.89,718.56Zm0-353.54c0,21.38.32,42.77-.16,64.13-.18,8.15,1.55,11.74,10.7,11.42,19.34-.67,38.74.46,58.06-.36,30.15-1.28,59.75-6,87.39-19,37.61-17.67,47.26-55.54,22.6-89-14.74-20-36.36-28.89-59.37-35-36.75-9.69-74.38-6.67-111.76-7.21-7.46-.11-7.5,4.34-7.48,9.63C516.93,321.44,516.89,343.23,516.88,365Z"/><path class="cls-2" d="M512.66,104.42c-.23,5.32-.66,10.65-.66,16q0,427.64,0,855.27c0,5.76-.16,11.51-.26,17.27q-248.49-.3-497-.31C2.85,992.64,0,989.88,0,977.94Q.57,536.68.26,95.45c0-23.89,4-46.63,18-66.66C30.25,11.52,47.07,2.37,68,.78,71.31.53,74.62.4,77.91.39Q315.28.15,552.67,0c62.15.06,99.42,39.48,102.38,106.77l-31-2.34C621.42,57.3,595.68,31,553.64,31.8,539,32.09,528.57,38.4,521.82,51,512.86,67.76,510.27,85.68,512.66,104.42ZM497,30.84H92.31C49.13,30.84,35.1,43.59,31,86.69c-.35,3.67-.2,7.4-.2,11.1q0,425.32-.29,850.64c0,11,2.79,13.3,13.48,13.27q211.49-.59,423,0c11.11,0,13.94-2.58,13.93-13.83q-.53-411.12-.32-822.24C480.59,93.64,479,61.51,497,30.84Z"/><path class="cls-2" d="M251.87,258c46.5,0,93,.25,139.52-.23,8.8-.09,10.9,2.4,10.83,10.88-.07,8.05-2.23,10.16-10.32,10.14q-141.37-.45-282.76,0c-8.31,0-10-2.42-10.21-10.26-.18-8.66,2.32-10.84,10.94-10.76C157.2,258.26,204.53,258,251.87,258Z"/><path class="cls-2" d="M250.61,445.72c-47,0-94-.25-140.92.23-8.88.09-10.63-2.54-10.8-10.93-.19-8.92,3.49-9.61,10.73-9.59q140.92.29,281.84,0c7.13,0,11.05.47,10.8,9.53-.23,8.27-1.76,11.09-10.73,11C344.56,445.46,297.58,445.72,250.61,445.72Z"/><path class="cls-2" d="M250.54,593.07c47,0,94,.25,140.92-.23,8.87-.09,10.63,2.53,10.8,10.92.18,8.92-3.48,9.62-10.73,9.61q-140.91-.29-281.84,0c-7.12,0-11.06-.46-10.8-9.52.23-8.27,1.75-11.1,10.73-11C156.59,593.33,203.56,593.07,250.54,593.07Z"/><path class="cls-2" d="M250.59,798.87c-47,0-94-.26-140.92.23-8.91.09-10.59-2.6-10.78-11-.21-9,3.55-9.59,10.75-9.58q140.93.28,281.84,0c7.17,0,11,.54,10.78,9.55-.21,8.31-1.82,11.06-10.76,11C344.53,798.61,297.56,798.87,250.59,798.87Z"/></g></g></svg>